<svg viewBox="0 0 1250 1250" xmlns="http://www.w3.org/2000/svg"><rect width="1250" height="1250" fill="#FFFFFF" /><rect x="150" y="150" width="300" height="300" fill="#777777" /> <path fill="none" stroke="#ffffff" stroke-width="6"  d="M 300 400 L 400 400 L 400 300 L 300" /><rect x="475" y="150" width="300" height="300" fill="#A8A8A8" /> <path fill="none" stroke="#ffffff" stroke-width="6"  d="M 625 400 L 725 400 L 725 300 L 625" /><rect x="800" y="150" width="300" height="300" fill="#505050" /> <path fill="none" stroke="#ffffff" stroke-width="6"  d="M 950 400 L 1050 400 L 1050 300 L 950" /><rect x="150" y="475" width="300" height="300" fill="#777777" /> <path fill="none" stroke="#ffffff" stroke-width="6"  d="M 300 725 L 400 725 L 400 625 L 300" /><rect x="475" y="475" width="300" height="300" fill="#2F2F2F" /> <path fill="none" stroke="#ffffff" stroke-width="6"  d="M 625 725 L 725 725 L 725 625 L 625" /><rect x="800" y="475" width="300" height="300" fill="#777777" /> <path fill="none" stroke="#ffffff" stroke-width="6"  d="M 950 725 L 1050 725 L 1050 625 L 950" /><rect x="150" y="800" width="625" height="300" fill="#505050" /> <path fill="none" stroke="#ffffff" stroke-width="6"  d="M 625 1050 L 725 1050 L 725 950 L 625" /><rect x="800" y="800" width="300" height="300" fill="#777777" /> <path fill="none" stroke="#ffffff" stroke-width="6"  d="M 950 1050 L 1050 1050 L 1050 950 L 950" /><rect x="150" y="150" width="625" height="300" fill="#505050" /> <path fill="none" stroke="#ffffff" stroke-width="6"  d="M 625 400 L 725 400 L 725 300 L 625" /><rect x="800" y="150" width="300" height="300" fill="#777777" /> <path fill="none" stroke="#ffffff" stroke-width="6"  d="M 950 400 L 1050 400 L 1050 300 L 950" /><circle cx="605" cy="605" r="40" fill="#ffffff"><animate attributeType="XML" attributeName="fill" values="#ffffff00;#ffffff00;#ffffff00;#ffffff00;#ffffff00;#ffffff;#ffffff00;#ffffff00;#ffffff00;#ffffff00;" dur="2s" repeatCount="indefinite"/></circle></svg>